<svg id="Layer_1" data-name="Layer 1" xmlns="http://www.w3.org/2000/svg" viewBox="0 0 48.53 23.82"><defs><style>.cls-1{fill:#8dc53e;}.cls-2{fill:#fff;}.cls-3{fill:#58595b;}.cls-4,.cls-5{fill:#f4899f;}.cls-5{stroke:#fff;stroke-miterlimit:10;stroke-width:0.75px;}</style></defs><title>Artboard 2</title><path class="cls-1" d="M10.45,7s-.15-2.31,3.18-2.61A3,3,0,0,1,10.45,7Z"/><path class="cls-2" d="M14.87,2.54a1.73,1.73,0,0,1-.08.35,2.93,2.93,0,0,1-.4.84,5.28,5.28,0,0,1-.39.5,3.88,3.88,0,0,1-.5.49,4.69,4.69,0,0,1-.6.45l-.63.43c-.21.14-.43.28-.62.43s-.39.29-.56.46a5.36,5.36,0,0,0-.87,1,2.7,2.7,0,0,0-.42.8,1.76,1.76,0,0,0,0,.25v0a1.23,1.23,0,0,1,0-.26,2.44,2.44,0,0,1,.34-.87,5.07,5.07,0,0,1,.84-1c.17-.17.38-.32.57-.49a7.17,7.17,0,0,1,.63-.45L12.77,5a3.72,3.72,0,0,0,.59-.43,5.64,5.64,0,0,0,.51-.45,4,4,0,0,0,.4-.45,3.43,3.43,0,0,0,.48-.78A1.25,1.25,0,0,0,14.87,2.54Z"/><path class="cls-1" d="M4,19.51a1.26,1.26,0,0,0,1.16-1.19L6.65,9.13a6.64,6.64,0,0,0,.11-.91c0-.42-.16-.58-.62-.63-2.23,0-4.52,0-4.87,0l.07-.56c.35,0,6.54.11,9.4.11,4.31,0,7.37-.4,8.46-2.65.81,0,1.36.42,1.36,1.06a1.17,1.17,0,0,1-.39.79C19.09,7.45,16.4,7.63,14,7.63c-1.28,0-2.48,0-3.35,0h-1c-.08.87-.75,3.33-.9,4l-1.15,5c-.3,1.37-.8,3.84-2.79,3.84A1.64,1.64,0,0,1,3,18.82l.18,0A.82.82,0,0,0,4,19.51Z"/><path class="cls-1" d="M11.22,16a4.06,4.06,0,0,1-.28,1.41l-.23.62a3.65,3.65,0,0,0-.22,1.1c0,.34.1.6.4.6a1.7,1.7,0,0,0,.91-.39l1.46-1.2c0-.37.07-.72.11-1l.39-2.47s.07-.06.12-.06h1c.39,0,.79.06.79.18h0L14.7,19a2.26,2.26,0,0,0,0,.33c0,.35.16.51.35.51a.91.91,0,0,0,.7-.55l.34-.67.11.06-.34.66a1.6,1.6,0,0,1-1.36,1c-.7,0-1.23-.56-1.23-1.8l-1.24,1a2.94,2.94,0,0,1-1.74.79c-1,0-1.31-.75-1.31-1.68a6.35,6.35,0,0,1,.22-1.53l.25-1a1.71,1.71,0,0,0,.07-.45c0-.31-.12-.44-.28-.44s-.44.19-.62.54l-.44.85L8,16.56l.55-1.07c.35-.71.73-1,1.2-1A1.34,1.34,0,0,1,11.22,16Z"/><path class="cls-1" d="M22.77,16.68a3.69,3.69,0,0,1-4,3.68C17,20.36,16,19.45,16,18c0-2.32,1.71-3.54,4-3.54C21.79,14.5,22.77,15.26,22.77,16.68ZM21,16.31c0-1-.38-1.52-1.1-1.52-1.23,0-2.17,2-2.17,4,0,.93.37,1.31,1.14,1.31C20.07,20.07,21,18.46,21,16.31Z"/><path class="cls-1" d="M25.69,15.75a4.73,4.73,0,0,1,0,.52l1.19-1a3.12,3.12,0,0,1,1.82-.79,1.24,1.24,0,0,1,1.41,1.4,6.51,6.51,0,0,1-.35,1.81l-.31,1a1.3,1.3,0,0,0-.07.4c0,.33.18.48.4.48a.91.91,0,0,0,.74-.54l.43-.84.1.06-.54,1.07a1.57,1.57,0,0,1-1.32,1c-1.11,0-1.46-.75-1.46-1.69a6.26,6.26,0,0,1,.15-1.25l.14-.63a6.37,6.37,0,0,0,.2-1.21c0-.3-.07-.53-.33-.53a1.73,1.73,0,0,0-.83.44l-1.46,1.2c-.08.37-.18.72-.25,1l-.63,2.47s-.08.07-.11.07h-.71c-.39,0-.8-.06-.8-.18s0-.08,0-.08l.7-4.16a2.92,2.92,0,0,0,.05-.45c0-.28-.08-.4-.18-.4s-.36.21-.53.56l-.34.66-.11-.05.34-.66a1.61,1.61,0,0,1,1.61-.93C25.45,14.56,25.69,15.09,25.69,15.75Z"/><path class="cls-1" d="M35.39,21c0-.3-.33-.39-.83-.39-.73,0-1.8.19-2.71.19s-1.72-.28-1.72-1.14a1.8,1.8,0,0,1,1-1.53l.21-.1a1.39,1.39,0,0,1-.81-1.27c0-1.53,1.31-2.27,3.1-2.27a3.69,3.69,0,0,1,1.55.27,3.48,3.48,0,0,1,1.34-.37c.45,0,.67.2.67.51s-.49.57-.65.58a.71.71,0,0,0-.74-.73,1.38,1.38,0,0,0-.46.09A1.28,1.28,0,0,1,36,16c0,1.5-1.39,2.35-3.11,2.35a3.67,3.67,0,0,1-1.21-.18l-.21.1a.86.86,0,0,0-.56.64c0,.41.25.55.63.55.78,0,2.05-.55,3-.55a1.35,1.35,0,0,1,1.52,1.43c0,1.68-1.51,2.29-3.5,2.29-1.68,0-2.8-.41-2.8-1h0a.56.56,0,0,1,.63-.57.63.63,0,0,1,.23,0,1,1,0,0,0-.09.39c0,.52.83.87,2.08.87S35.39,21.83,35.39,21Zm-.83-5.15c0-.7-.32-1.07-1-1.07-1,0-1.63,1-1.63,2.36,0,.66.31.93,1,.93C33.94,18.08,34.56,17.27,34.56,15.86Z"/><path class="cls-3" d="M25,9.08l0,.23h-.74l-.08.95h.51l0,.23h-.51l-.11,1.18h-.47l.23-2.59Z"/><path class="cls-3" d="M26.9,11.44l0,.23h-.74a.41.41,0,0,1-.28-.09.33.33,0,0,1-.08-.27l.17-2h-.13l0-.23h.6l-.19,2.23c0,.08,0,.13.12.13Z"/><path class="cls-3" d="M29.33,9.62l-.14,1.51a.53.53,0,0,1-.2.38.68.68,0,0,1-.48.16h-.15a.61.61,0,0,1-.45-.16.48.48,0,0,1-.14-.38l.13-1.51a.63.63,0,0,1,.21-.39.76.76,0,0,1,.48-.15h.15a.64.64,0,0,1,.45.15A.48.48,0,0,1,29.33,9.62Zm-.47-.06a.23.23,0,0,0-.05-.18.26.26,0,0,0-.17-.07.28.28,0,0,0-.17.07.31.31,0,0,0-.09.18l-.14,1.64a.22.22,0,0,0,.05.17.21.21,0,0,0,.17.07.24.24,0,0,0,.18-.07.23.23,0,0,0,.08-.17Z"/><path class="cls-3" d="M32.56,9.08l-.2,2.36h.18v.23H30.77a.69.69,0,0,1-.45-.13.45.45,0,0,1-.18-.42l.16-1.81h-.14l0-.23h.61l-.18,2.07c0,.18.05.27.19.27H31l.2-2.34h.48l-.18,2.07q0,.27.18.27h.2l.21-2.34Z"/><path class="cls-3" d="M34.75,9.08l0,.23h-.48a.29.29,0,0,0-.18.07.25.25,0,0,0-.08.18l-.06.7h.59l0,.23h-.59l-.07.71a.22.22,0,0,0,.06.17.2.2,0,0,0,.16.07h.48l0,.23h-.64a.46.46,0,0,1-.37-.16.47.47,0,0,1-.13-.38l.13-1.51a.57.57,0,0,1,.2-.38.55.55,0,0,1,.4-.16Z"/><path class="cls-3" d="M36.77,10.26a.28.28,0,0,1,.12.25v.06l-.06.74v0c0,.06,0,.1.12.1l0,.23h-.21c-.24,0-.36-.11-.36-.32v0l.06-.73v0c0-.09,0-.13-.11-.13H36l-.11,1.25h-.47l.21-2.36h-.14l0-.23h.85a.7.7,0,0,1,.4.1.4.4,0,0,1,.18.35A1,1,0,0,1,36.77,10.26Zm-.26-.78a.16.16,0,0,0,0-.12.17.17,0,0,0-.12,0h-.21l-.08.87h.24a.16.16,0,0,0,.17-.17Z"/><path class="cls-3" d="M40.43,9.08l0,.23h-.23a.45.45,0,0,0-.24,0,.27.27,0,0,0-.14.23.5.5,0,0,0,.11.28l.43.56a.72.72,0,0,1,.16.47.7.7,0,0,1-.28.59,1,1,0,0,1-.6.18h-.35l0-.23h.31a.53.53,0,0,0,.32-.1.33.33,0,0,0,.11-.25.56.56,0,0,0-.12-.32l-.48-.67a.52.52,0,0,1-.11-.32.65.65,0,0,1,.26-.53.83.83,0,0,1,.54-.17Z"/><path class="cls-3" d="M43,9.08l-.19,2.23c0,.08,0,.13.12.13l0,.23h-.21a.4.4,0,0,1-.27-.09.3.3,0,0,1-.09-.27l.07-.82H42l-.11,1.18h-.47l.21-2.36h-.14l0-.23h.6L42,10.26h.44l.1-1.18Z"/><path class="cls-3" d="M45.32,9.62l-.13,1.51a.53.53,0,0,1-.2.38.71.71,0,0,1-.48.16h-.15a.61.61,0,0,1-.45-.16.45.45,0,0,1-.14-.38l.13-1.51a.55.55,0,0,1,.21-.39.73.73,0,0,1,.47-.15h.16a.6.6,0,0,1,.44.15A.45.45,0,0,1,45.32,9.62Zm-.46-.06a.23.23,0,0,0-.06-.18.22.22,0,0,0-.16-.07.31.31,0,0,0-.18.07.25.25,0,0,0-.08.18l-.15,1.64a.19.19,0,0,0,.06.17.2.2,0,0,0,.16.07.28.28,0,0,0,.27-.24Z"/><path class="cls-3" d="M47.6,9.62l0,.43a.54.54,0,0,1-.19.38.61.61,0,0,1-.4.16h-.32l-.09,1.08h-.47l.21-2.36h-.14l0-.23h.92a.5.5,0,0,1,.5.54Zm-.46-.06a.28.28,0,0,0-.06-.18.24.24,0,0,0-.17-.07h-.15l-.09,1h.15a.24.24,0,0,0,.18-.07.28.28,0,0,0,.09-.17Z"/><path class="cls-1" d="M10.8,8s2.81-1,4.31,3.05A3.91,3.91,0,0,1,10.8,8Z"/><path class="cls-2" d="M10.45,8a2.3,2.3,0,0,1,1,.2,3.36,3.36,0,0,1,.9.55,11.28,11.28,0,0,1,.87.83,6.32,6.32,0,0,0,.85.8,4.49,4.49,0,0,0,.85.55,1.81,1.81,0,0,0,.68.22.43.43,0,0,0,.2,0h.08l-.07,0a1,1,0,0,1-.21,0,1.85,1.85,0,0,1-.73-.14,3.93,3.93,0,0,1-.93-.51,6.78,6.78,0,0,1-.9-.8c-.28-.29-.54-.6-.82-.84s-.27-.24-.42-.33a3.1,3.1,0,0,0-.41-.26A2.86,2.86,0,0,0,10.73,8,1.1,1.1,0,0,0,10.45,8Z"/><path class="cls-1" d="M18.26,11.72a.24.24,0,0,1,.1-.05.2.2,0,0,1,.12.06l1.37,2.13-.17.15L17.9,12.46l-.14-.18a.18.18,0,0,1,0-.09.15.15,0,0,1,.05-.12Z"/><path class="cls-1" d="M44.31,13.09a.12.12,0,0,1,.06.12s0,0,0,.09l-.14.18L42.4,15l-.16-.14,1.37-2.13a.14.14,0,0,1,.12-.06.16.16,0,0,1,.1.05Z"/><path class="cls-1" d="M15.26,12.53a.76.76,0,0,1,.85.85.83.83,0,0,1-.12.44c-.36.6-1,.9-1.2,1.55l-.26-.07a2.3,2.3,0,0,1,.73-1.07.82.82,0,0,1-.85-.85A.76.76,0,0,1,15.26,12.53Z"/><path class="cls-1" d="M22.22,12.84a.77.77,0,0,1,.86.85.9.9,0,0,1-.12.44c-.37.61-1,.9-1.21,1.56l-.26-.08a2.3,2.3,0,0,1,.73-1.07.82.82,0,0,1-.85-.85A.77.77,0,0,1,22.22,12.84Z"/><path class="cls-4" d="M21.43,5.12a2,2,0,1,1,1.75-2.23A2,2,0,0,1,21.43,5.12Z"/><path class="cls-4" d="M22.08,8.47a2,2,0,1,1,1.75-2.23A2,2,0,0,1,22.08,8.47Z"/><path class="cls-4" d="M18.09,6.09a2,2,0,0,1-.47-4,2,2,0,1,1,.47,4Z"/><path class="cls-5" d="M20.46,6.7a2,2,0,1,1,1.75-2.22A2,2,0,0,1,20.46,6.7Z"/><path class="cls-1" d="M40.09,14.91a1.39,1.39,0,0,1,1.52,1.41c0,.37,0,.72,0,1.08,0,1.45.38,2.88,1.51,3.34a6.79,6.79,0,0,0,1.59-3.37,1.93,1.93,0,0,0-1.2-1.6c.15-.21.42-.92,1-.92a1.06,1.06,0,0,1,1,1.19,10,10,0,0,1-2.2,5,4.41,4.41,0,0,1-3,2c-1.42,0-2.38-.65-2.38-1.63,0-.56.46-.94,1.15-.94,0,1.3.1,2.16,1.32,2.16a3,3,0,0,0,2-1.06,4.63,4.63,0,0,1-2.59-4.28c0-1,0-1.67-.37-1.67-.11,0-.26.15-.46.55l-.16.3-.1-.07.27-.52C39.26,15.22,39.62,14.91,40.09,14.91Z"/></svg>